<svg width="65" height="16" xmlns="http://www.w3.org/2000/svg" xmlns:xlink="http://www.w3.org/1999/xlink" xmlns:svgjs="http://svgjs.com/svgjs" viewBox="667 6568 65 16"><svg width="16" height="16" xmlns="http://www.w3.org/2000/svg" xmlns:xlink="http://www.w3.org/1999/xlink" xmlns:svgjs="http://svgjs.com/svgjs" fill="#3949ab" x="667" y="6568"><svg xmlns="http://www.w3.org/2000/svg" xmlns:xlink="http://www.w3.org/1999/xlink" width="16" height="16" viewBox="2 1.999 15 15"><path paint-order="stroke fill markers" fill-rule="evenodd" d="M9.5 2a7.5 7.5 0 1 1 0 15 7.5 7.5 0 0 1 0-15z"/></svg></svg><svg width="16" height="16" xmlns="http://www.w3.org/2000/svg" xmlns:xlink="http://www.w3.org/1999/xlink" xmlns:svgjs="http://svgjs.com/svgjs" fill="#00897b" x="691" y="6568"><svg xmlns="http://www.w3.org/2000/svg" xmlns:xlink="http://www.w3.org/1999/xlink" width="16" height="16" viewBox="2 1.999 15 15"><path paint-order="stroke fill markers" fill-rule="evenodd" d="M9.5 2a7.5 7.5 0 1 1 0 15 7.5 7.5 0 0 1 0-15z"/></svg></svg><svg width="16" height="16" xmlns="http://www.w3.org/2000/svg" xmlns:xlink="http://www.w3.org/1999/xlink" xmlns:svgjs="http://svgjs.com/svgjs" fill="#00897b" x="716" y="6568"><svg xmlns="http://www.w3.org/2000/svg" width="16" height="16" viewBox="2 1.999 15 15"><path paint-order="stroke fill markers" fill-rule="evenodd" d="M9.5 2a7.5 7.5 0 1 1 0 15 7.5 7.5 0 0 1 0-15z"/></svg></svg></svg>